<?xml version="1.0" encoding="utf-8"?>
<!-- Generator: Adobe Illustrator 21.1.0, SVG Export Plug-In . SVG Version: 6.00 Build 0)  -->
<svg version="1.1" id="Capa_1" xmlns="http://www.w3.org/2000/svg" xmlns:xlink="http://www.w3.org/1999/xlink" x="0px" y="0px"
	 viewBox="0 0 58.2 58.2" style="enable-background:new 0 0 58.2 58.2;" xml:space="preserve">
<style type="text/css">
	.st0{fill:#FFFFFF;}
</style>
<g>
	<path class="st0" d="M40.1,29.2h-7.1c-0.4-1.4-1.5-2.5-2.9-2.9V16.2c0-0.6-0.4-1-1-1s-1,0.4-1,1v10.1c-1.7,0.4-3,2-3,3.9
		c0,2.2,1.8,4,4,4c1.9,0,3.4-1.3,3.9-3h7.1c0.6,0,1-0.4,1-1S40.6,29.2,40.1,29.2z M29.1,32.2c-1.1,0-2-0.9-2-2s0.9-2,2-2s2,0.9,2,2
		S30.2,32.2,29.1,32.2z"/>
	<path class="st0" d="M50.2,9.8l4.1,4.1c0.2,0.2,0.4,0.3,0.7,0.3s0.5-0.1,0.7-0.3c3.2-3.2,3.2-8.3,0-11.5s-8.3-3.2-11.5,0
		c-0.2,0.2-0.3,0.4-0.3,0.7s0.1,0.5,0.3,0.7l4.6,4.6L47.1,10c-4.8-4.3-11.1-6.9-18-6.9s-13.2,2.6-18,6.9L9.4,8.4l4.6-4.6
		c0.2-0.2,0.3-0.4,0.3-0.7s-0.1-0.5-0.3-0.7c-3.2-3.2-8.3-3.2-11.5,0s-3.2,8.3,0,11.5c0.2,0.2,0.4,0.3,0.7,0.3s0.5-0.1,0.7-0.3
		L8,9.8l1.7,1.7C5,16.3,2.1,22.9,2.1,30.2c0,9.9,5.4,18.6,13.3,23.3l-3,3c-0.4,0.4-0.4,1,0,1.4c0.2,0.2,0.5,0.3,0.7,0.3
		s0.5-0.1,0.7-0.3l3.5-3.5c3.6,1.8,7.6,2.7,11.8,2.7s8.3-1,11.8-2.7l3.5,3.5c0.2,0.2,0.5,0.3,0.7,0.3s0.5-0.1,0.7-0.3
		c0.4-0.4,0.4-1,0-1.4l-3-3c8-4.7,13.3-13.4,13.3-23.3c0-7.3-2.9-13.9-7.6-18.7L50.2,9.8z M54.3,3.8c2.1,2.1,2.4,5.5,0.6,7.9
		l-8.5-8.5C48.8,1.4,52.1,1.6,54.3,3.8z M3.2,11.7C1.5,9.3,1.7,5.9,3.9,3.8s5.5-2.4,7.9-0.6L3.2,11.7z M29.1,53
		C16.5,53,6.2,42.8,6.2,30.2S16.5,7.3,29.1,7.3S52,17.5,52,30.2S41.7,53,29.1,53z"/>
	<path class="st0" d="M29.1,10c0.6,0,1-0.4,1-1V8c0-0.6-0.4-1-1-1s-1,0.4-1,1v1C28.1,9.6,28.5,10,29.1,10z"/>
	<path class="st0" d="M29.1,50c-0.6,0-1,0.4-1,1v1c0,0.6,0.4,1,1,1s1-0.4,1-1v-1C30.1,50.5,29.6,50,29.1,50z"/>
	<path class="st0" d="M50.1,31h1c0.6,0,1-0.4,1-1s-0.4-1-1-1h-1c-0.6,0-1,0.4-1,1S49.5,31,50.1,31z"/>
	<path class="st0" d="M8.1,29h-1c-0.6,0-1,0.4-1,1s0.4,1,1,1h1c0.6,0,1-0.4,1-1S8.6,29,8.1,29z"/>
	<path class="st0" d="M43.9,13.8l-0.7,0.7c-0.4,0.4-0.4,1,0,1.4c0.2,0.2,0.5,0.3,0.7,0.3s0.5-0.1,0.7-0.3l0.7-0.7
		c0.4-0.4,0.4-1,0-1.4S44.3,13.4,43.9,13.8z"/>
	<path class="st0" d="M13.5,44.2l-0.7,0.7c-0.4,0.4-0.4,1,0,1.4c0.2,0.2,0.5,0.3,0.7,0.3s0.5-0.1,0.7-0.3l0.7-0.7
		c0.4-0.4,0.4-1,0-1.4S13.9,43.8,13.5,44.2z"/>
	<path class="st0" d="M44.6,44.2c-0.4-0.4-1-0.4-1.4,0s-0.4,1,0,1.4l0.7,0.7c0.2,0.2,0.5,0.3,0.7,0.3s0.5-0.1,0.7-0.3
		c0.4-0.4,0.4-1,0-1.4L44.6,44.2z"/>
	<path class="st0" d="M14.2,13.8c-0.4-0.4-1-0.4-1.4,0s-0.4,1,0,1.4l0.7,0.7c0.2,0.2,0.5,0.3,0.7,0.3s0.5-0.1,0.7-0.3
		c0.4-0.4,0.4-1,0-1.4L14.2,13.8z"/>
</g>
</svg>
