<?xml version="1.0" encoding="utf-8"?>
<!-- Generator: Adobe Illustrator 21.1.0, SVG Export Plug-In . SVG Version: 6.00 Build 0)  -->
<svg version="1.1" id="Layer_1" xmlns="http://www.w3.org/2000/svg" xmlns:xlink="http://www.w3.org/1999/xlink" x="0px" y="0px"
	 viewBox="0 0 512 512" style="enable-background:new 0 0 512 512;" xml:space="preserve">
<style type="text/css">
	.st0{fill:#FFFFFF;}
</style>
<path class="st0" d="M458,151.9H68c-8.3,0-15,6.7-15,15v180c0,26.9,8.1,53,22.8,75H23c-8.3,0-15,6.7-15,15c0,41.4,33.6,75,75,75h300
	c41.4,0,75-33.6,75-75c0-8.3-6.7-15-15-15h-52.8c14.7-22,22.8-48.1,22.8-75v-45h45c24.8,0,45-20.2,45-45v-60
	C503,172.1,482.8,151.9,458,151.9z M383,181.9v30H83v-30H383z M383,482H83c-19.6,0-36.2-12.5-42.4-30h384.9
	C419.2,469.5,402.6,482,383,482z M114.5,422C94.4,402.3,83,375.3,83,347V242h300v105c0,28.3-11.4,55.3-31.5,75H114.5z M473,257
	c0,8.3-6.7,15-15,15h-45v-90h45c8.3,0,15,6.7,15,15V257z"/>
<path class="st0" d="M128.2,97.5c-5.4,6.3-4.7,15.8,1.6,21.2c6.3,5.4,15.8,4.7,21.1-1.6c23.9-27.9,9-48.1,0.1-60.2
	c-8.4-11.4-12.4-16.3,0.8-32.2c5.3-6.4,4.4-15.8-1.9-21.1c-6.4-5.3-15.8-4.4-21.1,1.9c-28,33.7-11.7,55.9-2,69.1
	C134.6,85.1,136.8,87.5,128.2,97.5z"/>
<path class="st0" d="M229.2,85.7c0.6,3.4-3.5,8.9-6,11.8c-5.4,6.3-4.7,15.8,1.6,21.2s15.8,4.7,21.1-1.6c19.6-22.9,16-40.5-0.1-60.9
	c-8.7-11-12.4-15.3,1.1-31.5c5.3-6.4,4.4-15.8-1.9-21.1S229.2-1,223.9,5.4C185.9,51,227.2,73.9,229.2,85.7z"/>
<path class="st0" d="M318.2,97.5c-5.4,6.3-4.7,15.8,1.6,21.2s15.8,4.7,21.1-1.6c23.8-27.8,9.1-48.2,0.3-60.5
	c-8.8-12.2-12-16.7,0.6-31.9c5.3-6.4,4.4-15.8-1.9-21.1S324.2-1,318.9,5.4c-27.6,33.1-11.5,55.4-1.9,68.7
	C324.7,84.9,326.8,87.4,318.2,97.5z"/>
</svg>
