<?xml version="1.0" encoding="utf-8"?>
<!-- Generator: Adobe Illustrator 21.1.0, SVG Export Plug-In . SVG Version: 6.00 Build 0)  -->
<svg version="1.1" id="Layer_1" xmlns="http://www.w3.org/2000/svg" xmlns:xlink="http://www.w3.org/1999/xlink" x="0px" y="0px"
	 viewBox="0 0 315 315" style="enable-background:new 0 0 315 315;" xml:space="preserve">
<style type="text/css">
	.st0{fill:#FFFFFF;stroke:#FFFFFF;stroke-width:3;stroke-miterlimit:10;}
</style>
<g transform="translate(0 -562.36)">
	<g>
		<g>
			<path class="st0" d="M128.6,656.9L128.6,656.9L128.6,656.9z"/>
			<path class="st0" d="M115.5,671.1v97.7c0,10.5,10.5,17.3,19.9,12.6l98.2-48.8c10-5.3,10-20,0-25.2l-98.2-48.8
				c-2.1-1.1-4.2-1.7-6.8-1.7C121.3,657.4,115.5,663.2,115.5,671.1z M143.3,693.7l52.5,26.3l-52.5,26.3V693.7z"/>
			<path class="st0" d="M237.8,590.8c-23.6-12.6-49.3-18.4-74.5-17.9l0,0c-3.7,0-7.4,0.6-11.1,1.1c-28.3,2.6-55.6,14.2-78.7,33.1
				c-7.3-6.3-17.3-10-27.8-10C20.5,597.1,0,617.6,0,642.8C0,667.5,20.5,688,45.7,688c24.6,0,45.1-20.5,45.1-45.2
				c0-4.2-0.6-8.4-1.6-12.6c0.6,0,1.1-0.6,1.6-1.1c37.3-31.6,90.3-37.3,133.9-13.7c43,23.1,67.7,70.4,61.4,119.2
				s-41.5,88.7-88.7,100.8c-47.8,12.1-98.2-6.3-126.5-46.2C59.8,774,37.3,790.3,48.3,805c35.2,49.3,97.1,72.4,155.9,57.2
				c58.3-14.7,102.4-64,109.7-124.4C321.3,678,290.8,619.2,237.8,590.8z M45.7,660.1c-9.9,0-17.8-7.8-17.8-17.3
				c0-10,7.8-17.9,17.8-17.9c9.4,0,17.3,7.9,17.3,17.9C63,652.2,55.1,660.1,45.7,660.1z"/>
		</g>
	</g>
</g>
</svg>
